<svg width="20" height="20" viewBox="0 0 20 20" fill="none" xmlns="http://www.w3.org/2000/svg">
<g clip-path="url(#clip0_5906_3798)">
<path d="M12.998 11.8523V14.5461C12.998 16.2167 12.998 17.052 12.6981 17.4169C12.5551 17.591 12.3746 17.7004 12.1824 17.7294C11.7792 17.7904 11.4079 17.6787 10.4663 16.5787C10.05 16.0924 9.84191 15.8493 9.60112 15.7852C9.48255 15.7537 9.36048 15.7537 9.24191 15.7852C9.00112 15.8493 8.793 16.0924 8.37676 16.5787C7.43511 17.6787 6.8647 17.7904 6.46152 17.7294C6.26923 17.7004 6.08872 17.591 5.94572 17.4169C5.64587 17.052 5.64587 16.2167 5.64587 14.5461V11.8523" stroke="#F17B19" stroke-width="1.38511"/>
<path d="M15.2038 7.44102C15.2038 10.6894 12.5705 13.3227 9.32213 13.3227C6.07376 13.3227 3.44043 10.6894 3.44043 7.44102C3.44043 4.19265 6.07376 1.55933 9.32213 1.55933C12.5705 1.55933 15.2038 4.19265 15.2038 7.44102Z" stroke="#F17B19" stroke-width="1.38511"/>
<path d="M9.32207 4.5L10.3072 6.32566L12.2629 6.74661L10.916 8.29588L11.1396 10.3817L9.32207 9.51354L7.50453 10.3817L7.72813 8.29588L6.38123 6.74661L8.33697 6.32566L9.32207 4.5Z" stroke="#F17B19" stroke-width="1.35264" stroke-linejoin="round"/>
</g>
<defs>
<clipPath id="clip0_5906_3798">
<rect x="0.303589" y="0.285645" width="18.8214" height="18.8214" rx="3.36658" fill="white"/>
</clipPath>
</defs>
</svg>
