<svg width="17" height="18" viewBox="0 0 17 18" fill="none" xmlns="http://www.w3.org/2000/svg">
<path fill-rule="evenodd" clip-rule="evenodd" d="M1.09343 2.71673C1.62966 2.14699 2.52623 2.11982 3.09598 2.65605L8.14588 7.4089L13.1958 2.65605C13.7655 2.11982 14.6621 2.14699 15.1983 2.71673C15.7346 3.28648 15.7074 4.18305 15.1376 4.71928L10.2129 9.35433L15.1376 13.9894C15.7074 14.5256 15.7346 15.4222 15.1983 15.9919C14.6621 16.5617 13.7655 16.5888 13.1958 16.0526L8.14588 11.2998L3.09598 16.0526C2.52623 16.5888 1.62966 16.5617 1.09343 15.9919C0.557196 15.4222 0.584365 14.5256 1.15411 13.9894L6.07885 9.35433L1.15411 4.71928C0.584365 4.18305 0.557197 3.28648 1.09343 2.71673Z" fill="#A8A8A8"/>
</svg>
