<svg width="20" height="20" viewBox="0 0 20 20" fill="none" xmlns="http://www.w3.org/2000/svg">
<path d="M3.69055 12.0491L16.2382 12.0491" stroke="#A8A8A8" stroke-width="1.41161" stroke-linecap="round" stroke-linejoin="round"/>
<path d="M3.69055 7.34375L16.2382 7.34375" stroke="#A8A8A8" stroke-width="1.41161" stroke-linecap="round" stroke-linejoin="round"/>
<circle cx="9.96429" cy="9.69622" r="7.05804" stroke="#A8A8A8" stroke-width="1.41161" stroke-linecap="round" stroke-linejoin="round"/>
<path d="M9.96457 16.6119L9.40445 17.1608C9.55195 17.3113 9.75383 17.3961 9.96457 17.3961C10.1753 17.3961 10.3772 17.3113 10.5247 17.1608L9.96457 16.6119ZM9.96457 2.78101L10.5247 2.23213C10.3772 2.0816 10.1753 1.99678 9.96457 1.99678C9.75382 1.99678 9.55195 2.0816 9.40445 2.23213L9.96457 2.78101ZM12.0036 9.69645C12.0036 12.1754 11.013 14.4214 9.40445 16.063L10.5247 17.1608C12.4089 15.2379 13.572 12.6022 13.572 9.69645H12.0036ZM9.40445 3.32989C11.013 4.97145 12.0036 7.21749 12.0036 9.69645H13.572C13.572 6.79067 12.4089 4.15498 10.5247 2.23213L9.40445 3.32989ZM7.92558 9.69645C7.92558 7.21749 8.9161 4.97145 10.5247 3.32989L9.40445 2.23213C7.5202 4.15498 6.35713 6.79067 6.35713 9.69645H7.92558ZM10.5247 16.063C8.9161 14.4214 7.92558 12.1754 7.92558 9.69645H6.35713C6.35713 12.6022 7.52021 15.2379 9.40445 17.1608L10.5247 16.063Z" fill="#A8A8A8"/>
</svg>
