<svg width="18" height="18" viewBox="0 0 18 18" fill="none" xmlns="http://www.w3.org/2000/svg">
<path d="M3 3.75C3 3.33579 3.33579 3 3.75 3H6.75C7.16421 3 7.5 3.33579 7.5 3.75V6.75C7.5 7.16421 7.16421 7.5 6.75 7.5H3.75C3.33579 7.5 3 7.16421 3 6.75V3.75Z" stroke="#F17B19" stroke-width="1.5" stroke-linecap="round" stroke-linejoin="round"/>
<path d="M3 11.25C3 10.8358 3.33579 10.5 3.75 10.5H6.75C7.16421 10.5 7.5 10.8358 7.5 11.25V14.25C7.5 14.6642 7.16421 15 6.75 15H3.75C3.33579 15 3 14.6642 3 14.25V11.25Z" stroke="#F17B19" stroke-width="1.5" stroke-linecap="round" stroke-linejoin="round"/>
<path d="M10.5 3.75C10.5 3.33579 10.8358 3 11.25 3H14.25C14.6642 3 15 3.33579 15 3.75V6.75C15 7.16421 14.6642 7.5 14.25 7.5H11.25C10.8358 7.5 10.5 7.16421 10.5 6.75V3.75Z" stroke="#F17B19" stroke-width="1.5" stroke-linecap="round" stroke-linejoin="round"/>
<path d="M10.5 11.25C10.5 10.8358 10.8358 10.5 11.25 10.5H14.25C14.6642 10.5 15 10.8358 15 11.25V14.25C15 14.6642 14.6642 15 14.25 15H11.25C10.8358 15 10.5 14.6642 10.5 14.25V11.25Z" stroke="#F17B19" stroke-width="1.5" stroke-linecap="round" stroke-linejoin="round"/>
</svg>
