<svg width="20" height="19" viewBox="0 0 20 19" fill="none" xmlns="http://www.w3.org/2000/svg">
<path d="M14.79 13.2767C13.902 14.4989 12.6027 15.3597 11.131 15.7008C9.65925 16.0419 8.11382 15.8405 6.77866 15.1336C5.44349 14.4267 4.40826 13.2617 3.86316 11.8527C3.31806 10.4437 3.2997 8.88528 3.81145 7.46383C4.32321 6.04238 5.3307 4.85333 6.64884 4.11513C7.96698 3.37694 9.50723 3.13919 10.9866 3.44555C12.466 3.75191 13.7851 4.58182 14.7017 5.7828C15.6182 6.98377 16.0707 8.47516 15.9758 9.98294M15.9758 9.98294L17.1521 8.8066M15.9758 9.98294L14.7995 8.8066" stroke="#A8A8A8" stroke-width="1.38511" stroke-linecap="round" stroke-linejoin="round"/>
<path d="M9.71411 6.45239V9.5893L12.0668 11.942" stroke="#A8A8A8" stroke-width="1.38511" stroke-linecap="round" stroke-linejoin="round"/>
</svg>
