<svg width="25" height="24" viewBox="0 0 25 24" fill="none" xmlns="http://www.w3.org/2000/svg">
<g clip-path="url(#clip0_5810_6228)">
<path d="M15.695 4.513C16.373 3.69 16.851 2.567 16.851 1.433C16.851 1.278 16.841 1.123 16.818 1C15.706 1.044 14.372 1.734 13.583 2.668C12.949 3.379 12.371 4.513 12.371 5.647C12.371 5.825 12.405 5.991 12.416 6.047C12.482 6.058 12.594 6.08 12.716 6.08C13.706 6.08 14.95 5.413 15.695 4.513ZM16.473 6.313C14.817 6.313 13.461 7.325 12.593 7.325C11.671 7.325 10.47 6.38 9.025 6.38C6.279 6.38 3.5 8.648 3.5 12.918C3.5 15.586 4.523 18.398 5.801 20.211C6.891 21.744 7.847 23 9.225 23C10.581 23 11.182 22.1 12.871 22.1C14.583 22.1 14.972 22.978 16.473 22.978C17.963 22.978 18.953 21.61 19.897 20.265C20.942 18.72 21.387 17.219 21.397 17.142C21.309 17.119 18.463 15.952 18.463 12.695C18.463 9.871 20.698 8.604 20.831 8.504C19.352 6.381 17.096 6.313 16.473 6.313Z" fill="white"/>
</g>
<defs>
<clipPath id="clip0_5810_6228">
<rect width="24" height="24" fill="white" transform="translate(0.5)"/>
</clipPath>
</defs>
</svg>
