<svg width="17" height="18" viewBox="0 0 17 18" fill="none" xmlns="http://www.w3.org/2000/svg">
<g clip-path="url(#clip0_4181_337)">
<path d="M11.466 10.5762V13.0094C11.466 14.5183 11.466 15.2727 11.1952 15.6024C11.066 15.7596 10.903 15.8584 10.7293 15.8846C10.3652 15.9396 10.0298 15.8388 9.17931 14.8452C8.80336 14.406 8.61538 14.1864 8.39789 14.1285C8.29079 14.1 8.18054 14.1 8.07344 14.1285C7.85595 14.1864 7.66798 14.406 7.29202 14.8452C6.44149 15.8388 5.92628 15.9396 5.56212 15.8846C5.38844 15.8584 5.2254 15.7596 5.09624 15.6024C4.82541 15.2727 4.82541 14.5183 4.82541 13.0094V10.5762" stroke="#F17B19" stroke-width="1.25106"/>
<path d="M13.4583 6.59186C13.4583 9.52587 11.0798 11.9044 8.1458 11.9044C5.21179 11.9044 2.8333 9.52587 2.8333 6.59186C2.8333 3.65785 5.21179 1.27936 8.1458 1.27936C11.0798 1.27936 13.4583 3.65785 13.4583 6.59186Z" stroke="#F17B19" stroke-width="1.25106"/>
<path d="M8.14581 3.93561L9.03559 5.58459L10.8021 5.9648L9.5855 7.36414L9.78747 9.24811L8.14581 8.46397L6.50416 9.24811L6.70613 7.36414L5.48956 5.9648L7.25604 5.58459L8.14581 3.93561Z" stroke="#F17B19" stroke-width="1.22174" stroke-linejoin="round"/>
</g>
<defs>
<clipPath id="clip0_4181_337">
<rect y="0.128845" width="17" height="17" rx="3.04078" fill="white"/>
</clipPath>
</defs>
</svg>
