<svg width="17" height="18" viewBox="0 0 17 18" fill="none" xmlns="http://www.w3.org/2000/svg">
<path d="M13.0843 11.9596C12.2823 13.0636 11.1088 13.841 9.77946 14.1492C8.45014 14.4573 7.05427 14.2754 5.84832 13.6368C4.64236 12.9983 3.70731 11.9461 3.21496 10.6734C2.72261 9.40079 2.70603 7.99322 3.16826 6.70932C3.63049 5.42543 4.54049 4.35145 5.73106 3.68469C6.92164 3.01794 8.31283 2.80319 9.64905 3.07991C10.9853 3.35662 12.1767 4.10622 13.0046 5.19097C13.8325 6.27572 14.2411 7.62278 14.1554 8.98465M14.1554 8.98465L15.2179 7.92215M14.1554 8.98465L13.0929 7.92215" stroke="#F17B19" stroke-width="1.25106" stroke-linecap="round" stroke-linejoin="round"/>
<path d="M8.49993 5.79565V8.62899L10.6249 10.754" stroke="#F17B19" stroke-width="1.25106" stroke-linecap="round" stroke-linejoin="round"/>
</svg>
