<svg width="50" height="50" viewBox="0 0 50 50" fill="none" xmlns="http://www.w3.org/2000/svg">
<circle cx="24.8889" cy="24.8888" r="18.6667" stroke="#F17B19" stroke-width="3.73333" stroke-linecap="round" stroke-linejoin="round"/>
<path d="M24.2791 31.4963C25.1599 31.4963 25.8879 31.2537 26.4631 30.7683C27.0563 30.265 27.4068 29.5999 27.5146 28.7731C27.5506 28.5933 27.6495 28.5214 27.8112 28.5574L29.8335 28.9079C30.0132 28.9438 30.0941 29.0517 30.0761 29.2314C29.8604 30.6155 29.2313 31.721 28.1887 32.5479C27.1641 33.3568 25.8609 33.7612 24.2791 33.7612C23.1287 33.7612 22.1131 33.5275 21.2323 33.0602C20.3515 32.5928 19.6684 31.9367 19.1831 31.0919C18.6978 30.2291 18.4551 29.2314 18.4551 28.099V26.4812C18.4551 26.4093 18.4191 26.3734 18.3472 26.3734H16.4868C16.307 26.3734 16.2172 26.2835 16.2172 26.1037V25.187C16.2172 25.0072 16.307 24.9174 16.4868 24.9174H18.3472C18.4191 24.9174 18.4551 24.8814 18.4551 24.8095V23.3805C18.4551 23.3086 18.4191 23.2726 18.3472 23.2726H16.4868C16.307 23.2726 16.2172 23.1828 16.2172 23.003V22.0863C16.2172 21.9065 16.307 21.8166 16.4868 21.8166H18.3472C18.4191 21.8166 18.4551 21.7807 18.4551 21.7088V20.0371C18.4551 18.9226 18.6978 17.9429 19.1831 17.0981C19.6684 16.2353 20.3515 15.5792 21.2323 15.1298C22.1131 14.6625 23.1287 14.4288 24.2791 14.4288C25.8969 14.4288 27.218 14.8422 28.2426 15.6691C29.2852 16.4959 29.8964 17.6194 30.0761 19.0394V19.0934C30.0761 19.2192 29.9952 19.3001 29.8335 19.336L27.7843 19.6057H27.7303C27.6045 19.6057 27.5236 19.5248 27.4877 19.363C27.3798 18.5541 27.0293 17.907 26.4361 17.4217C25.8609 16.9184 25.1419 16.6667 24.2791 16.6667C23.3084 16.6667 22.5265 16.9723 21.9333 17.5834C21.3401 18.1766 21.0435 18.9675 21.0435 19.9562V21.7088C21.0435 21.7807 21.0795 21.8166 21.1514 21.8166H27.2989C27.4967 21.8166 27.5686 21.9155 27.5146 22.1132L27.218 23.0569C27.1641 23.2007 27.0563 23.2726 26.8945 23.2726H21.1514C21.0795 23.2726 21.0435 23.3086 21.0435 23.3805V24.8095C21.0435 24.8814 21.0795 24.9174 21.1514 24.9174H26.3822C26.5799 24.9174 26.6518 25.0162 26.5979 25.214L26.3013 26.1577C26.2474 26.3015 26.1395 26.3734 25.9778 26.3734H21.1514C21.0795 26.3734 21.0435 26.4093 21.0435 26.4812V28.2069C21.0435 29.1955 21.3401 29.9954 21.9333 30.6066C22.5265 31.1997 23.3084 31.4963 24.2791 31.4963Z" fill="#F17B19"/>
</svg>
