<svg width="24" height="25" viewBox="0 0 24 25" fill="none" xmlns="http://www.w3.org/2000/svg">
<path d="M21.4286 0.848694H2.57143C1.88944 0.848694 1.23539 1.11961 0.753154 1.60185C0.270918 2.08408 0 2.73814 0 3.42012L0 22.2773C0 22.9593 0.270918 23.6133 0.753154 24.0955C1.23539 24.5778 1.88944 24.8487 2.57143 24.8487H9.92411V16.6892H6.54911V12.8487H9.92411V9.92155C9.92411 6.59209 11.9063 4.75298 14.9421 4.75298C16.3961 4.75298 17.9164 5.01227 17.9164 5.01227V8.28012H16.2413C14.5907 8.28012 14.0759 9.30441 14.0759 10.3549V12.8487H17.7605L17.1713 16.6892H14.0759V24.8487H21.4286C22.1106 24.8487 22.7646 24.5778 23.2468 24.0955C23.7291 23.6133 24 22.9593 24 22.2773V3.42012C24 2.73814 23.7291 2.08408 23.2468 1.60185C22.7646 1.11961 22.1106 0.848694 21.4286 0.848694Z" fill="#F17B19"/>
</svg>
