<svg width="25" height="24" viewBox="0 0 25 24" fill="none" xmlns="http://www.w3.org/2000/svg">
<g clip-path="url(#clip0_5810_6218)">
<path fill-rule="evenodd" clip-rule="evenodd" d="M22.1 12.2273C22.1 11.5182 22.0364 10.8364 21.9182 10.1819H12.5V14.0501H17.8818C17.65 15.3001 16.9455 16.3592 15.8864 17.0682V19.5773H19.1182C21.0091 17.8364 22.1 15.2728 22.1 12.2273Z" fill="#4285F4"/>
<path fill-rule="evenodd" clip-rule="evenodd" d="M12.4999 21.9999C15.1999 21.9999 17.4635 21.1044 19.1181 19.5772L15.8862 17.0681C14.9908 17.6681 13.8453 18.0226 12.4999 18.0226C9.8953 18.0226 7.69075 16.2635 6.90439 13.8999H3.56348V16.4908C5.20894 19.759 8.59075 21.9999 12.4999 21.9999Z" fill="#34A853"/>
<path fill-rule="evenodd" clip-rule="evenodd" d="M6.90455 13.8999C6.70455 13.2999 6.59091 12.659 6.59091 11.9999C6.59091 11.3409 6.70455 10.6999 6.90455 10.0999V7.50903H3.56364C2.88636 8.85903 2.5 10.3863 2.5 11.9999C2.5 13.6136 2.88636 15.1409 3.56364 16.4909L6.90455 13.8999Z" fill="#FBBC05"/>
<path fill-rule="evenodd" clip-rule="evenodd" d="M12.4999 5.97727C13.9681 5.97727 15.2862 6.48182 16.3226 7.47273L19.1908 4.60455C17.459 2.99091 15.1953 2 12.4999 2C8.59075 2 5.20894 4.24091 3.56348 7.50909L6.90439 10.1C7.69075 7.73636 9.8953 5.97727 12.4999 5.97727Z" fill="#EA4335"/>
</g>
<defs>
<clipPath id="clip0_5810_6218">
<rect width="24" height="24" fill="white" transform="translate(0.5)"/>
</clipPath>
</defs>
</svg>
