<svg width="24" height="25" viewBox="0 0 24 25" fill="none" xmlns="http://www.w3.org/2000/svg">
<path d="M12 0.848694C8.73784 0.848694 8.33129 0.864446 7.05463 0.918453C5.77272 0.98146 4.90561 1.18024 4.14052 1.47727C3.33976 1.77958 2.61457 2.25288 2.0155 2.8642C1.40248 3.46187 0.928914 4.18746 0.628579 4.98921C0.331541 5.75431 0.132767 6.62142 0.0697587 7.90333C0.0120015 9.18073 0 9.58654 0 12.8487C0 16.1109 0.015752 16.5174 0.0697587 17.7941C0.132767 19.0722 0.331541 19.9431 0.628579 20.7082C0.930882 21.5089 1.40419 22.2341 2.0155 22.8332C2.61317 23.4462 3.33877 23.9198 4.14052 24.2201C4.90561 24.5134 5.77647 24.7159 7.05463 24.7789C8.33204 24.8367 8.73784 24.8487 12 24.8487C15.2622 24.8487 15.6687 24.8329 16.9454 24.7789C18.2235 24.7159 19.0944 24.5127 19.8595 24.2201C20.6602 23.9178 21.3854 23.4445 21.9845 22.8332C22.5983 22.2362 23.072 21.5104 23.3714 20.7082C23.6647 19.9431 23.8672 19.0722 23.9302 17.7941C23.988 16.5167 24 16.1109 24 12.8487C24 9.58654 23.9842 9.17999 23.9302 7.90333C23.8672 6.62517 23.664 5.74981 23.3714 4.98921C23.0691 4.18846 22.5958 3.46327 21.9845 2.8642C21.3875 2.25039 20.6617 1.77669 19.8595 1.47727C19.0944 1.18024 18.2235 0.98146 16.9454 0.918453C15.668 0.860695 15.2622 0.848694 12 0.848694ZM12 3.00896C15.2037 3.00896 15.5862 3.02472 16.8524 3.07872C18.0203 3.13348 18.6563 3.3285 19.0786 3.49352C19.6007 3.68624 20.0732 3.99297 20.4618 4.39139C20.8595 4.77831 21.1651 5.24975 21.3559 5.77081C21.5209 6.19311 21.716 6.82919 21.7707 7.99709C21.8247 9.26325 21.8405 9.64654 21.8405 12.8494C21.8405 16.0523 21.8247 16.4356 21.7662 17.7018C21.7032 18.8697 21.5082 19.5058 21.3439 19.9281C21.1166 20.4914 20.8631 20.8852 20.4446 21.3113C20.0547 21.7072 19.5825 22.0124 19.0614 22.2054C18.6443 22.3704 17.9993 22.5654 16.8269 22.6202C15.5539 22.6742 15.1789 22.6899 11.967 22.6899C8.7551 22.6899 8.3808 22.6742 7.10639 22.6157C5.93849 22.5527 5.29416 22.3576 4.87186 22.1934C4.30179 21.9661 3.91099 21.7126 3.49244 21.294C3.07013 20.8717 2.8016 20.4696 2.59457 19.9108C2.42655 19.4938 2.23453 18.8487 2.17227 17.6763C2.12952 16.4184 2.10926 16.0283 2.10926 12.8314C2.10926 9.63604 2.12952 9.24524 2.17227 7.97158C2.23453 6.79919 2.42655 6.15561 2.59457 5.73705C2.8016 5.16623 3.07088 4.77618 3.49244 4.35388C3.91024 3.93608 4.30179 3.66605 4.87186 3.45452C5.29416 3.29025 5.92274 3.09522 7.09514 3.03672C8.36805 2.99096 8.74309 2.97446 11.9505 2.97446L12 3.00896ZM12 6.68967C11.1909 6.68938 10.3897 6.84852 9.64212 7.15801C8.89456 7.4675 8.21531 7.92127 7.6432 8.49339C7.07108 9.06551 6.61731 9.74475 6.30782 10.4923C5.99833 11.2399 5.83918 12.0411 5.83948 12.8502C5.83918 13.6593 5.99833 14.4605 6.30782 15.2081C6.61731 15.9556 7.07108 16.6349 7.6432 17.207C8.21531 17.7791 8.89456 18.2329 9.64212 18.5424C10.3897 18.8519 11.1909 19.011 12 19.0107C12.8091 19.011 13.6103 18.8519 14.3579 18.5424C15.1054 18.2329 15.7847 17.7791 16.3568 17.207C16.9289 16.6349 17.3827 15.9556 17.6922 15.2081C18.0017 14.4605 18.1608 13.6593 18.1605 12.8502C18.1608 12.0411 18.0017 11.2399 17.6922 10.4923C17.3827 9.74475 16.9289 9.06551 16.3568 8.49339C15.7847 7.92127 15.1054 7.4675 14.3579 7.15801C13.6103 6.84852 12.8091 6.68938 12 6.68967ZM12 16.8504C9.78872 16.8504 7.99975 15.0615 7.99975 12.8502C7.99975 10.6389 9.78872 8.84994 12 8.84994C14.2113 8.84994 16.0002 10.6389 16.0002 12.8502C16.0002 15.0615 14.2113 16.8504 12 16.8504ZM19.849 6.44364C19.8486 6.82594 19.6964 7.19244 19.426 7.46263C19.1555 7.73281 18.7888 7.88457 18.4066 7.88457C18.2175 7.88457 18.0303 7.84734 17.8557 7.775C17.6811 7.70267 17.5224 7.59664 17.3887 7.46297C17.2551 7.32931 17.149 7.17063 17.0767 6.99599C17.0044 6.82135 16.9671 6.63417 16.9671 6.44514C16.9671 6.25611 17.0044 6.06894 17.0767 5.8943C17.149 5.71966 17.2551 5.56098 17.3887 5.42731C17.5224 5.29365 17.6811 5.18762 17.8557 5.11528C18.0303 5.04295 18.2175 5.00571 18.4066 5.00571C19.1994 5.00571 19.849 5.65079 19.849 6.44364Z" fill="#F17B19"/>
</svg>
