<svg width="17" height="18" viewBox="0 0 17 18" fill="none" xmlns="http://www.w3.org/2000/svg">
<path d="M2.83333 10.7539L14.1667 10.7539" stroke="#F17B19" stroke-width="1.275" stroke-linecap="round" stroke-linejoin="round"/>
<path d="M2.83333 6.50391L14.1667 6.50391" stroke="#F17B19" stroke-width="1.275" stroke-linecap="round" stroke-linejoin="round"/>
<circle cx="8.5" cy="8.62891" r="6.375" stroke="#F17B19" stroke-width="1.275" stroke-linecap="round" stroke-linejoin="round"/>
<path d="M8.49997 14.8752L7.99405 15.371C8.12728 15.5069 8.30962 15.5835 8.49997 15.5835C8.69033 15.5835 8.87267 15.5069 9.00589 15.371L8.49997 14.8752ZM8.49997 2.3828L9.00589 1.88703C8.87267 1.75108 8.69032 1.67446 8.49997 1.67446C8.30962 1.67446 8.12728 1.75108 7.99405 1.88703L8.49997 2.3828ZM10.3416 8.629C10.3416 10.8681 9.44698 12.8967 7.99405 14.3794L9.00589 15.371C10.7078 13.6342 11.7583 11.2536 11.7583 8.629H10.3416ZM7.99405 2.87856C9.44698 4.36126 10.3416 6.38994 10.3416 8.629H11.7583C11.7583 6.00443 10.7078 3.6238 9.00589 1.88703L7.99405 2.87856ZM6.6583 8.629C6.6583 6.38994 7.55296 4.36126 9.00589 2.87856L7.99405 1.88703C6.29216 3.6238 5.24164 6.00443 5.24164 8.629H6.6583ZM9.00589 14.3794C7.55296 12.8967 6.6583 10.8681 6.6583 8.629H5.24164C5.24164 11.2536 6.29216 13.6342 7.99405 15.371L9.00589 14.3794Z" fill="#F17B19"/>
</svg>
