<svg width="24" height="25" viewBox="0 0 24 25" fill="none" xmlns="http://www.w3.org/2000/svg">
<path fill-rule="evenodd" clip-rule="evenodd" d="M-0.0020749 2.85379C-0.0020749 2.322 0.209175 1.812 0.585203 1.43597C0.96123 1.05995 1.47123 0.848697 2.00302 0.848697H21.9907C22.2542 0.848266 22.5152 0.89982 22.7588 1.00041C23.0024 1.10099 23.2237 1.24863 23.4102 1.43488C23.5966 1.62113 23.7445 1.84232 23.8454 2.0858C23.9462 2.32927 23.9981 2.59025 23.9979 2.85379V22.8414C23.9982 23.105 23.9465 23.3661 23.8458 23.6097C23.7451 23.8533 23.5974 24.0746 23.411 24.261C23.2247 24.4475 23.0034 24.5953 22.7599 24.6962C22.5164 24.797 22.2553 24.8488 21.9917 24.8487H2.00302C1.73961 24.8487 1.47879 24.7968 1.23545 24.696C0.992109 24.5951 0.771021 24.4473 0.584817 24.261C0.398613 24.0747 0.250941 23.8536 0.15024 23.6102C0.0495393 23.3668 -0.00221821 23.1059 -0.0020749 22.8425V2.85379ZM9.49756 9.99924H12.7474V11.6312C13.2165 10.6931 14.4165 9.8487 16.2197 9.8487C19.6768 9.8487 20.4961 11.7174 20.4961 15.1462V21.4974H16.9976V15.9272C16.9976 13.9745 16.5285 12.8727 15.3372 12.8727C13.6845 12.8727 12.9972 14.0607 12.9972 15.9272V21.4974H9.49756V9.99924ZM3.49756 21.348H6.9972V9.8487H3.49756V21.3469V21.348ZM7.49792 6.09815C7.50452 6.39779 7.4512 6.69574 7.34109 6.97449C7.23099 7.25325 7.06631 7.50721 6.85672 7.72146C6.64714 7.93571 6.39687 8.10594 6.1206 8.22216C5.84434 8.33838 5.54764 8.39824 5.24792 8.39824C4.94821 8.39824 4.65151 8.33838 4.37525 8.22216C4.09898 8.10594 3.84871 7.93571 3.63913 7.72146C3.42954 7.50721 3.26486 7.25325 3.15475 6.97449C3.04465 6.69574 2.99133 6.39779 2.99792 6.09815C3.01088 5.50999 3.25362 4.95029 3.67416 4.5389C4.09471 4.12751 4.65962 3.89715 5.24792 3.89715C5.83623 3.89715 6.40114 4.12751 6.82169 4.5389C7.24223 4.95029 7.48497 5.50999 7.49792 6.09815Z" fill="#F17B19"/>
</svg>
