<svg width="25" height="24" viewBox="0 0 25 24" fill="none" xmlns="http://www.w3.org/2000/svg">
<path d="M6.57194 6.26794L7.02194 5.48852L6.57194 6.26794ZM5.20592 6.63397L4.4265 6.18397L4.4265 6.18397L5.20592 6.63397ZM4.20592 8.36602L3.4265 7.91602H3.4265L4.20592 8.36602ZM4.57194 9.73205L4.12194 10.5115H4.12194L4.57194 9.73205ZM4.57194 14.2679L4.12194 13.4885H4.12194L4.57194 14.2679ZM4.20592 15.634L4.98534 15.184H4.98534L4.20592 15.634ZM5.20592 17.366L4.4265 17.816H4.4265L5.20592 17.366ZM6.57194 17.732L7.02194 18.5115L6.57194 17.732ZM18.4284 17.732L17.9784 18.5115L18.4284 17.732ZM19.7944 17.366L19.015 16.916L19.7944 17.366ZM20.7944 15.634L21.5738 16.084L20.7944 15.634ZM20.4284 14.2679L19.9784 15.0474L20.4284 14.2679ZM20.4284 9.73205L20.8784 10.5115L20.4284 9.73205ZM20.7944 8.36602L20.015 8.81602L20.015 8.81602L20.7944 8.36602ZM19.7944 6.63397L19.015 7.08397L19.7944 6.63397ZM18.4284 6.26794L18.8784 7.04737L18.4284 6.26794ZM15.1514 6.61604L14.7532 7.42315L15.1514 6.61604ZM17.0119 7.08573L17.4619 7.86515L17.0119 7.08573ZM15.836 7.01204L15.335 7.7597L15.836 7.01204ZM18.4873 11.6035L17.5892 11.6621L18.4873 11.6035ZM19.0118 10.5499L18.5618 9.77048L19.0118 10.5499ZM15.836 16.988L15.335 16.2403L15.836 16.988ZM17.0119 16.9143L16.5619 17.6937L17.0119 16.9143ZM19.0118 13.4501L18.5618 14.2295L19.0118 13.4501ZM9.84892 17.384L10.2471 16.5768L9.84892 17.384ZM7.98838 16.9143L7.53838 16.1348L7.98838 16.9143ZM9.16431 16.988L8.6633 17.7356L9.16431 16.988ZM15.1514 17.384L15.5496 18.1911L15.1514 17.384ZM5.98852 10.5499L5.53852 11.3293L5.98852 10.5499ZM6.51304 11.6035L5.61495 11.545L6.51304 11.6035ZM7.98839 7.08573L7.53839 7.86515L7.98839 7.08573ZM11.4001 4C11.4001 3.94477 11.4449 3.9 11.5001 3.9V2.1C10.4508 2.1 9.60015 2.95066 9.60015 4H11.4001ZM11.4001 5.63424V4H9.60015V5.63424H11.4001ZM9.66532 7.7597C9.85109 7.63522 10.0454 7.52268 10.2471 7.42315L9.45071 5.80892C9.17744 5.94375 8.91449 6.09607 8.6633 6.26439L9.66532 7.7597ZM6.12194 7.04737L7.53839 7.86515L8.43839 6.30631L7.02194 5.48852L6.12194 7.04737ZM5.98534 7.08397C6.01296 7.03614 6.07412 7.01975 6.12194 7.04737L7.02194 5.48852C6.11319 4.96385 4.95117 5.27521 4.4265 6.18397L5.98534 7.08397ZM4.98534 8.81602L5.98534 7.08397L4.4265 6.18397L3.4265 7.91602L4.98534 8.81602ZM5.02194 8.95262C4.97411 8.92501 4.95773 8.86385 4.98534 8.81602L3.4265 7.91602C2.90183 8.82478 3.21319 9.9868 4.12194 10.5115L5.02194 8.95262ZM6.43852 9.77048L5.02194 8.95262L4.12194 10.5115L5.53852 11.3293L6.43852 9.77048ZM7.40015 12C7.40015 11.8863 7.40385 11.7737 7.41113 11.6621L5.61495 11.545C5.60513 11.6955 5.60015 11.8472 5.60015 12H7.40015ZM7.41113 12.3379C7.40385 12.2263 7.40015 12.1136 7.40015 12H5.60015C5.60015 12.1528 5.60513 12.3045 5.61495 12.455L7.41113 12.3379ZM5.02194 15.0474L6.43852 14.2295L5.53852 12.6707L4.12194 13.4885L5.02194 15.0474ZM4.98534 15.184C4.95773 15.1361 4.97411 15.075 5.02195 15.0474L4.12194 13.4885C3.21319 14.0132 2.90183 15.1752 3.4265 16.084L4.98534 15.184ZM5.98534 16.916L4.98534 15.184L3.4265 16.084L4.4265 17.816L5.98534 16.916ZM6.12194 16.9526C6.07411 16.9802 6.01296 16.9638 5.98534 16.916L4.4265 17.816C4.95117 18.7248 6.11319 19.0361 7.02194 18.5115L6.12194 16.9526ZM7.53838 16.1348L6.12194 16.9526L7.02194 18.5115L8.43838 17.6937L7.53838 16.1348ZM10.2471 16.5768C10.0454 16.4773 9.85108 16.3648 9.66531 16.2403L8.6633 17.7356C8.91448 17.9039 9.17744 18.0563 9.45071 18.1911L10.2471 16.5768ZM11.4001 20V18.3658H9.60015V20H11.4001ZM11.5001 20.1C11.4449 20.1 11.4001 20.0552 11.4001 20H9.60015C9.60015 21.0493 10.4508 21.9 11.5001 21.9V20.1ZM13.5001 20.1H11.5001V21.9H13.5001V20.1ZM13.6001 20C13.6001 20.0552 13.5554 20.1 13.5001 20.1V21.9C14.5495 21.9 15.4001 21.0493 15.4001 20H13.6001ZM13.6001 18.3658V20H15.4001V18.3658H13.6001ZM15.335 16.2403C15.1492 16.3648 14.9549 16.4773 14.7532 16.5768L15.5496 18.1911C15.8229 18.0563 16.0858 17.9039 16.337 17.7356L15.335 16.2403ZM18.8783 16.9526L17.4619 16.1348L16.5619 17.6937L17.9784 18.5115L18.8783 16.9526ZM19.015 16.916C18.9873 16.9638 18.9262 16.9802 18.8783 16.9526L17.9784 18.5115C18.8871 19.0361 20.0491 18.7248 20.5738 17.816L19.015 16.916ZM20.015 15.184L19.015 16.916L20.5738 17.816L21.5738 16.084L20.015 15.184ZM19.9784 15.0474C20.0262 15.075 20.0426 15.1361 20.015 15.184L21.5738 16.084C22.0985 15.1752 21.7871 14.0132 20.8783 13.4885L19.9784 15.0474ZM18.5618 14.2295L19.9784 15.0474L20.8784 13.4885L19.4618 12.6707L18.5618 14.2295ZM17.6001 12C17.6001 12.1136 17.5964 12.2263 17.5892 12.3379L19.3854 12.455C19.3952 12.3045 19.4001 12.1528 19.4001 12H17.6001ZM17.5892 11.6621C17.5964 11.7737 17.6001 11.8863 17.6001 12H19.4001C19.4001 11.8472 19.3952 11.6955 19.3854 11.545L17.5892 11.6621ZM19.9784 8.95262L18.5618 9.77048L19.4618 11.3293L20.8784 10.5115L19.9784 8.95262ZM20.015 8.81602C20.0426 8.86385 20.0262 8.92501 19.9784 8.95262L20.8784 10.5115C21.7871 9.9868 22.0985 8.82478 21.5738 7.91602L20.015 8.81602ZM19.015 7.08397L20.015 8.81602L21.5738 7.91602L20.5738 6.18397L19.015 7.08397ZM18.8784 7.04737C18.9262 7.01975 18.9873 7.03614 19.015 7.08397L20.5738 6.18397C20.0491 5.27521 18.8871 4.96385 17.9784 5.48852L18.8784 7.04737ZM17.4619 7.86515L18.8784 7.04737L17.9784 5.48852L16.5619 6.30631L17.4619 7.86515ZM14.7532 7.42315C14.9549 7.52268 15.1492 7.63522 15.335 7.7597L16.337 6.26439C16.0858 6.09607 15.8229 5.94375 15.5496 5.80892L14.7532 7.42315ZM13.6001 4V5.63423H15.4001V4H13.6001ZM13.5001 3.9C13.5554 3.9 13.6001 3.94477 13.6001 4H15.4001C15.4001 2.95066 14.5495 2.1 13.5001 2.1V3.9ZM11.5001 3.9H13.5001V2.1H11.5001V3.9ZM15.5496 5.80892C15.4921 5.78056 15.4507 5.74175 15.4267 5.7066C15.4043 5.6737 15.4001 5.64971 15.4001 5.63423H13.6001C13.6001 6.4585 14.1214 7.11143 14.7532 7.42315L15.5496 5.80892ZM16.5619 6.30631C16.5485 6.31407 16.5256 6.32242 16.4861 6.31944C16.4439 6.31625 16.3899 6.29987 16.337 6.26439L15.335 7.7597C15.9212 8.15253 16.7479 8.27738 17.4619 7.86515L16.5619 6.30631ZM19.3854 11.545C19.3812 11.4814 19.3941 11.4265 19.4124 11.3884C19.4297 11.3527 19.4483 11.3371 19.4618 11.3293L18.5618 9.77048C17.8489 10.1821 17.5433 10.9589 17.5892 11.6621L19.3854 11.545ZM16.337 17.7356C16.3899 17.7001 16.4439 17.6837 16.4861 17.6806C16.5257 17.6776 16.5485 17.6859 16.5619 17.6937L17.4619 16.1348C16.7479 15.7226 15.9212 15.8475 15.335 16.2403L16.337 17.7356ZM19.4618 12.6707C19.4483 12.6629 19.4297 12.6473 19.4124 12.6116C19.3941 12.5734 19.3812 12.5186 19.3854 12.455L17.5892 12.3379C17.5433 13.0411 17.8489 13.8179 18.5618 14.2295L19.4618 12.6707ZM9.45071 18.1911C9.5082 18.2194 9.54958 18.2582 9.57356 18.2934C9.59599 18.3263 9.60015 18.3503 9.60015 18.3658H11.4001C11.4001 17.5415 10.8789 16.8886 10.2471 16.5768L9.45071 18.1911ZM8.43838 17.6937C8.45183 17.6859 8.47464 17.6776 8.51415 17.6806C8.55636 17.6837 8.61035 17.7001 8.6633 17.7356L9.66531 16.2403C9.07909 15.8475 8.25238 15.7226 7.53838 16.1348L8.43838 17.6937ZM15.4001 18.3658C15.4001 18.3503 15.4043 18.3263 15.4267 18.2934C15.4507 18.2582 15.4921 18.2194 15.5496 18.1911L14.7532 16.5768C14.1214 16.8886 13.6001 17.5415 13.6001 18.3658H15.4001ZM5.61495 12.455C5.61909 12.5186 5.60624 12.5734 5.58785 12.6116C5.57065 12.6473 5.55197 12.6629 5.53852 12.6707L6.43852 14.2295C7.15144 13.8179 7.457 13.0411 7.41113 12.3379L5.61495 12.455ZM5.53852 11.3293C5.55197 11.3371 5.57065 11.3527 5.58785 11.3884C5.60624 11.4265 5.61909 11.4814 5.61495 11.545L7.41113 11.6621C7.457 10.9589 7.15144 10.1821 6.43852 9.77048L5.53852 11.3293ZM8.6633 6.26439C8.61036 6.29987 8.55637 6.31625 8.51416 6.31944C8.47465 6.32242 8.45184 6.31407 8.43839 6.30631L7.53839 7.86515C8.25239 8.27738 9.0791 8.15253 9.66532 7.7597L8.6633 6.26439ZM9.60015 5.63424C9.60015 5.64971 9.59599 5.67371 9.57356 5.7066C9.54958 5.74175 9.5082 5.78056 9.45071 5.80892L10.2471 7.42315C10.8789 7.11143 11.4001 6.4585 11.4001 5.63424H9.60015Z" fill="#F17B19"/>
<circle cx="12.5" cy="12" r="3" stroke="#F17B19" stroke-width="1.8" stroke-linecap="round" stroke-linejoin="round"/>
</svg>
