<svg width="25" height="24" viewBox="0 0 25 24" fill="none" xmlns="http://www.w3.org/2000/svg">
<path d="M4.5 4L20.5 20" stroke="#B3B3B3" stroke-width="2" stroke-linecap="round"/>
<path fill-rule="evenodd" clip-rule="evenodd" d="M6.72308 5.63732C4.69212 6.89322 3.10069 8.79137 2.23175 11.0474C1.99567 11.6604 1.99567 12.3396 2.23175 12.9526C3.81889 17.0733 7.81641 20 12.5 20C14.922 20 17.1606 19.2173 18.9773 17.8915L17.542 16.4562C16.1033 17.4309 14.3678 18 12.5 18C8.67084 18 5.39784 15.6083 4.0981 12.2337C4.04022 12.0835 4.04022 11.9165 4.0981 11.7663C4.86731 9.76914 6.32766 8.11625 8.1854 7.09964L6.72308 5.63732ZM9.97955 8.89379C9.0768 9.6272 8.49997 10.7462 8.49997 12C8.49997 14.2091 10.2908 16 12.5 16C13.7537 16 14.8728 15.4232 15.6062 14.5204L14.1766 13.0908C13.8197 13.6382 13.2021 14 12.5 14C11.3954 14 10.5 13.1046 10.5 12C10.5 11.2979 10.8618 10.6802 11.4091 10.3234L9.97955 8.89379ZM16.4627 12.5485L11.9515 8.03729C12.1308 8.0127 12.3139 8 12.5 8C14.7091 8 16.5 9.79086 16.5 12C16.5 12.1861 16.4873 12.3692 16.4627 12.5485ZM19.0678 15.1536C19.8538 14.3151 20.4812 13.3259 20.9018 12.2337C20.9597 12.0835 20.9597 11.9165 20.9018 11.7663C19.6021 8.39172 16.3291 6 12.5 6C11.7082 6 10.9402 6.10226 10.2085 6.29433L8.61855 4.70437C9.82541 4.24913 11.1335 4 12.5 4C17.1835 4 21.181 6.92668 22.7682 11.0474C23.0043 11.6604 23.0043 12.3396 22.7682 12.9526C22.2464 14.3074 21.464 15.5331 20.4824 16.5682L19.0678 15.1536Z" fill="#B3B3B3"/>
</svg>
