<svg width="19" height="19" viewBox="0 0 19 19" fill="none" xmlns="http://www.w3.org/2000/svg">
<path d="M8.70372 4.53372L11.9103 6.93864C12.4033 7.30839 13.0812 7.30839 13.5742 6.93864L16.7807 4.53369" stroke="#F17B19" stroke-width="0.92437" stroke-linecap="round" stroke-linejoin="round"/>
<rect x="8.19888" y="3.52417" width="9.08664" height="7.06739" rx="0.92437" stroke="#F17B19" stroke-width="0.831933" stroke-linecap="round"/>
<path d="M14.4627 13.6548L4.88332 1.34937L3.85329 11.6078L14.4627 13.6548Z" fill="#1C1C1C" stroke="#1C1C1C" stroke-width="0.462185"/>
<path d="M6.93049 14.8739C7.87423 15.3642 8.98889 15.7149 10.3003 15.8576C10.5661 15.8865 10.7925 15.674 10.7925 15.4066V14.0305C10.7925 13.8197 10.6499 13.6357 10.4458 13.583L8.89437 13.1826C8.73343 13.1411 8.56258 13.1892 8.44692 13.3086L6.93049 14.8739ZM6.93049 14.8739C5.24919 14.0004 4.11034 12.6837 3.36787 11.31M3.36787 11.31C2.63887 9.96116 2.29201 8.55735 2.18903 7.46411C2.16454 7.20416 2.37472 6.98804 2.63583 6.98804H3.93576C4.15712 6.98804 4.3474 7.14499 4.3895 7.36231L4.8108 9.53673C4.83951 9.68493 4.79404 9.83781 4.68901 9.94623L3.36787 11.31Z" stroke="#F17B19" stroke-width="0.831933"/>
<path d="M4.7688 3.80127L13.4043 14.9097" stroke="#F17B19" stroke-width="0.831933" stroke-linecap="round"/>
</svg>
