<svg width="24" height="25" viewBox="0 0 24 25" fill="none" xmlns="http://www.w3.org/2000/svg">
<g clip-path="url(#clip0_2552_4606)">
<path d="M21.141 0.848694H2.85488C1.27952 0.848694 -0.0020752 2.13029 -0.0020752 3.70565V21.9917C-0.0020752 23.5671 1.27952 24.8487 2.85488 24.8487H21.141C22.7163 24.8487 23.9979 23.5671 23.9979 21.9917V3.70565C23.9979 2.13029 22.7163 0.848694 21.141 0.848694ZM18.8581 11.3194C18.7266 11.3319 18.595 11.3386 18.4635 11.3396C17.0197 11.3396 15.6728 10.6119 14.8808 9.40325V15.9956C14.8808 18.6865 12.6997 20.8685 10.0078 20.8685C7.316 20.8685 5.13488 18.6874 5.13488 15.9956C5.13488 13.3037 7.316 11.1226 10.0078 11.1226C10.1096 11.1226 10.2094 11.1322 10.3093 11.138V13.5399C10.2094 13.5284 10.1106 13.5092 10.0078 13.5092C8.63408 13.5092 7.52144 14.6228 7.52144 15.9956C7.52144 17.3684 8.63505 18.482 10.0078 18.482C11.3816 18.482 12.595 17.4001 12.595 16.0263L12.619 4.82981H14.9163C15.1333 6.88997 16.7941 8.49893 18.86 8.64965V11.3185" fill="#F17B19"/>
</g>
<defs>
<clipPath id="clip0_2552_4606">
<rect width="24" height="24" fill="white" transform="translate(-0.0020752 0.848694)"/>
</clipPath>
</defs>
</svg>
