<svg width="28" height="28" viewBox="0 0 28 28" fill="none" xmlns="http://www.w3.org/2000/svg">
<path d="M19.5908 21.9579C19.3164 19.7356 17.4216 18.0151 15.125 18.0151H12.875C10.5784 18.0151 8.68362 19.7356 8.40916 21.9579M19.5908 21.9579C22.3235 20.1447 24.125 17.0403 24.125 13.5151C24.125 7.92325 19.5919 3.39014 14 3.39014C8.40812 3.39014 3.875 7.92325 3.875 13.5151C3.875 17.0403 5.67654 20.1447 8.40916 21.9579M19.5908 21.9579C17.9888 23.0209 16.0667 23.6401 14 23.6401C11.9333 23.6401 10.0112 23.0209 8.40916 21.9579M17.375 11.2651C17.375 13.1291 15.864 14.6401 14 14.6401C12.136 14.6401 10.625 13.1291 10.625 11.2651C10.625 9.40118 12.136 7.89014 14 7.89014C15.864 7.89014 17.375 9.40118 17.375 11.2651Z" stroke="#F17B19" stroke-width="2" stroke-linecap="round" stroke-linejoin="round"/>
</svg>
