<svg width="24" height="25" viewBox="0 0 24 25" fill="none" xmlns="http://www.w3.org/2000/svg">
<path fill-rule="evenodd" clip-rule="evenodd" d="M2.79609 24.8487H21.2C22.7455 24.8487 23.9982 23.596 23.9979 22.0503V3.64682C23.9979 2.1014 22.7452 0.848694 21.1998 0.848694H2.79609C1.25065 0.848694 -0.0020752 2.1014 -0.0020752 3.64682V22.0506C-0.0020752 23.596 1.25065 24.8487 2.79609 24.8487ZM10.1356 13.6551L3.68494 5.02995H8.65659L12.8855 10.6843L18.1193 5.02995H19.5804L13.5382 11.5573L20.352 20.6675H15.3803L10.7886 14.5279L5.10533 20.6675H3.64429L10.1356 13.6551ZM8.11742 6.10631H5.83347L15.9192 19.5914H18.2031L8.11742 6.10631Z" fill="#F17B19"/>
</svg>
