<svg width="20" height="25" viewBox="0 0 20 25" fill="none" xmlns="http://www.w3.org/2000/svg">
<path d="M16.9156 18.4036H15.6024L15.6087 17.6356C15.6087 17.3019 15.8835 17.0145 16.2236 17.0145H16.3057C16.6577 17.0145 16.9388 17.3012 16.9388 17.6356L16.9156 18.4036ZM11.9768 16.763C11.643 16.763 11.3732 16.9919 11.3732 17.2667V20.9815C11.3732 21.2519 11.643 21.4859 11.9768 21.4859C12.3112 21.4859 12.586 21.2519 12.586 20.9815V17.2667C12.5854 16.9919 12.3106 16.763 11.9768 16.763ZM19.9979 14.6832V21.7551C19.9979 23.454 18.533 24.8487 16.728 24.8487H3.27495C1.46996 24.8487 0 23.454 0 21.7551V14.6832C0 12.9842 1.47059 11.6015 3.27495 11.6015H16.728C18.5323 11.6015 19.9979 12.9842 19.9979 14.6832ZM4.17211 22.5286V15.0759H5.84221V13.9692L1.39531 13.9636V15.0533H2.78434V22.5305H4.17211V22.5286ZM9.16986 16.1889H7.78083V20.1621C7.78083 20.7481 7.81597 21.0292 7.78083 21.1352C7.66414 21.4401 7.15972 21.7682 6.96084 21.1703C6.92633 21.053 6.95519 20.7481 6.95519 20.1973V16.1895H5.56616L5.57244 20.1383C5.57244 20.7362 5.56052 21.1929 5.57808 21.3918C5.60694 21.7551 5.59628 22.1767 5.93005 22.4226C6.5568 22.8674 7.75762 22.3523 8.05688 21.708V22.528H9.16986V16.1889ZM13.6168 20.7468V17.4248C13.6168 16.1707 12.6738 15.4091 11.3896 16.4286L11.3958 13.9673H10.0012V22.4809L11.138 22.4577L11.249 21.9307C12.7027 23.2671 13.6168 22.353 13.6168 20.7468ZM17.9708 20.302L16.9275 20.314V21.0411C16.9275 21.346 16.6696 21.6039 16.3534 21.6039H16.1545C15.8383 21.6039 15.5868 21.346 15.5868 21.0411V19.494H17.9715V18.5981C17.9715 17.9531 17.9482 17.2849 17.9012 16.916C17.7255 15.7271 16.0611 15.5452 15.2172 16.1481C14.9475 16.3363 14.7479 16.5873 14.6313 16.933C14.5139 17.273 14.455 17.7417 14.455 18.3389V20.314C14.4606 23.5946 18.4382 23.1259 17.9708 20.302ZM12.6205 9.57876C12.6964 9.75506 12.8087 9.89496 12.9543 10.001C13.1061 10.1064 13.3006 10.1647 13.5283 10.1647C13.7272 10.1647 13.9035 10.1058 14.0616 9.98907C14.2134 9.87802 14.3427 9.71428 14.4543 9.49093L14.4192 10.0418H15.972V3.44544H14.753V8.57871C14.753 8.85978 14.524 9.0825 14.2373 9.0825C13.9625 9.0825 13.7272 8.8535 13.7272 8.57871V3.44544H12.4611V7.89235C12.4611 8.45511 12.473 8.83531 12.4843 9.02917C12.5038 9.21613 12.5565 9.40435 12.6205 9.57876ZM7.92764 5.85335C7.92764 5.22031 7.98034 4.72844 8.08574 4.37146C8.1855 4.0195 8.37873 3.73278 8.65353 3.51634C8.92895 3.30052 9.27464 3.19449 9.70251 3.19449C10.0595 3.19449 10.3701 3.2704 10.6285 3.39964C10.8807 3.5452 11.0796 3.72149 11.2145 3.94421C11.3663 4.16756 11.4604 4.3953 11.5075 4.63057C11.5602 4.86459 11.5834 5.22847 11.5834 5.70277V7.37852C11.5834 7.98771 11.5652 8.43943 11.5075 8.72677C11.4661 9.01349 11.3663 9.27762 11.2082 9.52355C11.0564 9.76949 10.8563 9.95143 10.6103 10.0681C10.3701 10.1974 10.0896 10.2501 9.76651 10.2501C9.41455 10.2501 9.12156 10.1974 8.87562 10.0982C8.62341 9.99284 8.43645 9.84603 8.30156 9.6415C8.16668 9.44262 8.06755 9.19041 8.01485 8.90934C7.95587 8.61635 7.92701 8.1822 7.92701 7.6025V5.85335H7.92764ZM9.14101 8.47205C9.14101 8.84723 9.42207 9.14587 9.75584 9.14587C10.0959 9.14587 10.3707 8.8466 10.3707 8.47205V4.96183C10.3707 4.59293 10.0896 4.28802 9.75584 4.28802C9.4158 4.28802 9.14101 4.59293 9.14101 4.96183V8.47205ZM4.84592 10.2469H6.31087L6.31714 5.1902L8.03994 0.859986H6.44576L5.52601 4.07094L4.59372 0.848694H3.01208L4.84592 5.19083V10.2469Z" fill="#F17B19"/>
</svg>
