<svg width="20" height="20" viewBox="0 0 20 20" fill="none" xmlns="http://www.w3.org/2000/svg">
<path d="M13.0316 12.1736V14.8674C13.0316 16.538 13.0316 17.3732 12.7317 17.7382C12.5887 17.9123 12.4082 18.0217 12.2159 18.0507C11.8127 18.1117 11.4415 18 10.4998 16.8999C10.0836 16.4137 9.87548 16.1706 9.63469 16.1065C9.51612 16.0749 9.39405 16.0749 9.27548 16.1065C9.03469 16.1706 8.82657 16.4137 8.41033 16.8999C7.46868 18 6.89827 18.1117 6.49509 18.0507C6.3028 18.0217 6.12229 17.9123 5.97929 17.7382C5.67944 17.3732 5.67944 16.538 5.67944 14.8674V12.1736" stroke="#F17B19" stroke-width="1.38511"/>
<path d="M15.2374 7.76231C15.2374 11.0107 12.6041 13.644 9.3557 13.644C6.10732 13.644 3.474 11.0107 3.474 7.76231C3.474 4.51394 6.10732 1.88062 9.3557 1.88062C12.6041 1.88062 15.2374 4.51394 15.2374 7.76231Z" stroke="#F17B19" stroke-width="1.38511"/>
<path d="M9.35564 4.82153L10.3408 6.64719L12.2965 7.06814L10.9496 8.61741L11.1732 10.7032L9.35564 9.83507L7.5381 10.7032L7.7617 8.61741L6.41479 7.06814L8.37053 6.64719L9.35564 4.82153Z" stroke="#F17B19" stroke-width="1.35264" stroke-linejoin="round"/>
</svg>
