<svg width="22" height="20" viewBox="0 0 22 20" fill="none" xmlns="http://www.w3.org/2000/svg">
<path d="M9.97339 4.73367L13.5235 7.39627C14.0693 7.80563 14.8198 7.80563 15.3657 7.39627L18.9158 4.73364" stroke="#F17B19" stroke-width="1.02341" stroke-linecap="round" stroke-linejoin="round"/>
<rect x="9.41443" y="3.61597" width="10.0602" height="7.82461" rx="1.02341" stroke="#F17B19" stroke-width="0.921068" stroke-linecap="round"/>
<path d="M16.3494 14.8321L5.74365 1.20825L4.60326 12.5658L16.3494 14.8321Z" fill="#767676" stroke="#767676" stroke-width="0.511705"/>
<path d="M8.01023 16.182C9.05509 16.7248 10.2892 17.113 11.7411 17.271C12.0353 17.303 12.2861 17.0677 12.2861 16.7717V15.2482C12.2861 15.0148 12.1282 14.811 11.9022 14.7527L10.1845 14.3095C10.0063 14.2635 9.81718 14.3167 9.68914 14.4489L8.01023 16.182ZM8.01023 16.182C6.14879 15.2149 4.88792 13.7571 4.0659 12.2362M4.0659 12.2362C3.25879 10.7428 2.87477 9.18862 2.76075 7.97826C2.73364 7.69045 2.96634 7.45117 3.25542 7.45117H4.69463C4.93971 7.45117 5.15038 7.62494 5.19699 7.86554L5.66343 10.2729C5.69522 10.437 5.64488 10.6063 5.52859 10.7263L4.0659 12.2362Z" stroke="#F17B19" stroke-width="0.921068"/>
<path d="M5.61694 3.92285L15.1777 16.2215" stroke="#F17B19" stroke-width="0.921068" stroke-linecap="round"/>
</svg>
