<svg width="19" height="20" viewBox="0 0 19 20" fill="none" xmlns="http://www.w3.org/2000/svg">
<path d="M3.15271 12.3704L15.7003 12.3704" stroke="#F17B19" stroke-width="1.41161" stroke-linecap="round" stroke-linejoin="round"/>
<path d="M3.15271 7.66504L15.7003 7.66504" stroke="#F17B19" stroke-width="1.41161" stroke-linecap="round" stroke-linejoin="round"/>
<circle cx="9.42645" cy="10.0178" r="7.05804" stroke="#F17B19" stroke-width="1.41161" stroke-linecap="round" stroke-linejoin="round"/>
<path d="M9.42637 16.9334L8.86624 17.4823C9.01374 17.6328 9.21562 17.7176 9.42636 17.7176C9.63711 17.7176 9.83899 17.6328 9.98649 17.4823L9.42637 16.9334ZM9.42636 3.10254L9.98649 2.55366C9.83899 2.40314 9.63711 2.31831 9.42636 2.31831C9.21562 2.31831 9.01374 2.40314 8.86624 2.55366L9.42636 3.10254ZM11.4654 10.018C11.4654 12.4969 10.4748 14.743 8.86624 16.3845L9.98649 17.4823C11.8707 15.5594 13.0338 12.9238 13.0338 10.018H11.4654ZM8.86624 3.65142C10.4748 5.29298 11.4654 7.53902 11.4654 10.018H13.0338C13.0338 7.1122 11.8707 4.47651 9.98649 2.55366L8.86624 3.65142ZM7.38738 10.018C7.38738 7.53902 8.37789 5.29298 9.98649 3.65142L8.86624 2.55366C6.982 4.47651 5.81892 7.1122 5.81892 10.018H7.38738ZM9.98649 16.3845C8.37789 14.743 7.38738 12.4969 7.38738 10.018H5.81892C5.81892 12.9238 6.982 15.5594 8.86624 17.4823L9.98649 16.3845Z" fill="#F17B19"/>
</svg>
