<svg width="24" height="24" viewBox="0 0 24 24" fill="none" xmlns="http://www.w3.org/2000/svg">
<circle cx="12" cy="12" r="9" stroke="#F17B19" stroke-width="1.8" stroke-linecap="round" stroke-linejoin="round"/>
<path d="M11.706 15.025C12.1307 15.025 12.4817 14.908 12.759 14.674C13.045 14.4313 13.214 14.1107 13.266 13.712C13.2833 13.6253 13.331 13.5907 13.409 13.608L14.384 13.777C14.4707 13.7943 14.5097 13.8463 14.501 13.933C14.397 14.6003 14.0937 15.1333 13.591 15.532C13.097 15.922 12.4687 16.117 11.706 16.117C11.1513 16.117 10.6617 16.0043 10.237 15.779C9.81233 15.5537 9.483 15.2373 9.249 14.83C9.015 14.414 8.898 13.933 8.898 13.387V12.607C8.898 12.5723 8.88067 12.555 8.846 12.555H7.949C7.86233 12.555 7.819 12.5117 7.819 12.425V11.983C7.819 11.8963 7.86233 11.853 7.949 11.853H8.846C8.88067 11.853 8.898 11.8357 8.898 11.801V11.112C8.898 11.0773 8.88067 11.06 8.846 11.06H7.949C7.86233 11.06 7.819 11.0167 7.819 10.93V10.488C7.819 10.4013 7.86233 10.358 7.949 10.358H8.846C8.88067 10.358 8.898 10.3407 8.898 10.306V9.5C8.898 8.96267 9.015 8.49033 9.249 8.083C9.483 7.667 9.81233 7.35067 10.237 7.134C10.6617 6.90867 11.1513 6.796 11.706 6.796C12.486 6.796 13.123 6.99533 13.617 7.394C14.1197 7.79267 14.4143 8.33433 14.501 9.019V9.045C14.501 9.10567 14.462 9.14467 14.384 9.162L13.396 9.292H13.37C13.3093 9.292 13.2703 9.253 13.253 9.175C13.201 8.785 13.032 8.473 12.746 8.239C12.4687 7.99633 12.122 7.875 11.706 7.875C11.238 7.875 10.861 8.02233 10.575 8.317C10.289 8.603 10.146 8.98433 10.146 9.461V10.306C10.146 10.3407 10.1633 10.358 10.198 10.358H13.162C13.2573 10.358 13.292 10.4057 13.266 10.501L13.123 10.956C13.097 11.0253 13.045 11.06 12.967 11.06H10.198C10.1633 11.06 10.146 11.0773 10.146 11.112V11.801C10.146 11.8357 10.1633 11.853 10.198 11.853H12.72C12.8153 11.853 12.85 11.9007 12.824 11.996L12.681 12.451C12.655 12.5203 12.603 12.555 12.525 12.555H10.198C10.1633 12.555 10.146 12.5723 10.146 12.607V13.439C10.146 13.9157 10.289 14.3013 10.575 14.596C10.861 14.882 11.238 15.025 11.706 15.025Z" fill="#F17B19"/>
</svg>
