<svg width="23" height="23" viewBox="0 0 23 23" fill="none" xmlns="http://www.w3.org/2000/svg">
<path fill-rule="evenodd" clip-rule="evenodd" d="M1.54361 2.66074C2.30064 1.81618 3.56639 1.7759 4.37074 2.57079L11.5 9.61618L18.6293 2.57079C19.4336 1.7759 20.6994 1.81618 21.4564 2.66074C22.2134 3.5053 22.1751 4.83434 21.3707 5.62922L14.4182 12.5L21.3707 19.3708C22.1751 20.1657 22.2134 21.4947 21.4564 22.3393C20.6994 23.1838 19.4336 23.2241 18.6293 22.4292L11.5 15.3838L4.37074 22.4292C3.56639 23.2241 2.30064 23.1838 1.54361 22.3393C0.786573 21.4947 0.824929 20.1657 1.62928 19.3708L8.58185 12.5L1.62928 5.62922C0.824929 4.83434 0.786573 3.5053 1.54361 2.66074Z" fill="#282828"/>
</svg>
