<svg width="24" height="25" viewBox="0 0 24 25" fill="none" xmlns="http://www.w3.org/2000/svg">
<path d="M11.0489 4.96684C11.3483 4.04553 12.6517 4.04554 12.9511 4.96685L14.2451 8.94963C14.379 9.36165 14.763 9.64061 15.1962 9.64061H19.3839C20.3527 9.64061 20.7554 10.8802 19.9717 11.4496L16.5838 13.9111C16.2333 14.1658 16.0866 14.6171 16.2205 15.0292L17.5146 19.0119C17.8139 19.9332 16.7595 20.6994 15.9757 20.13L12.5878 17.6685C12.2373 17.4138 11.7627 17.4138 11.4122 17.6685L8.02426 20.13C7.24054 20.6994 6.18607 19.9332 6.48542 19.0119L7.7795 15.0292C7.91338 14.6171 7.76672 14.1658 7.41623 13.9111L4.02827 11.4496C3.24456 10.8802 3.64734 9.64061 4.61606 9.64061H8.8038C9.23703 9.64061 9.62099 9.36165 9.75486 8.94962L11.0489 4.96684Z" stroke="#A8A8A8" stroke-width="1.8" stroke-linecap="round" stroke-linejoin="round"/>
</svg>
