<svg width="20" height="20" viewBox="0 0 20 20" fill="none" xmlns="http://www.w3.org/2000/svg">
<path d="M14.8234 13.8838C13.9354 15.1061 12.6362 15.9668 11.1644 16.308C9.69269 16.6491 8.14727 16.4477 6.81211 15.7408C5.47694 15.0338 4.44171 13.8688 3.89661 12.4598C3.35151 11.0508 3.33315 9.49246 3.8449 8.07101C4.35666 6.64956 5.36415 5.46051 6.68229 4.72231C8.00043 3.98412 9.54068 3.74636 11.0201 4.05273C12.4994 4.35909 13.8186 5.189 14.7351 6.38997C15.6517 7.59095 16.1041 9.08233 16.0092 10.5901M16.0092 10.5901L17.1856 9.41378M16.0092 10.5901L14.8329 9.41378" stroke="#F17B19" stroke-width="1.38511" stroke-linecap="round" stroke-linejoin="round"/>
<path d="M9.7478 7.05957V10.1965L12.1005 12.5492" stroke="#F17B19" stroke-width="1.38511" stroke-linecap="round" stroke-linejoin="round"/>
</svg>
